<svg width="202" height="44" viewBox="0 0 202 44" fill="none" xmlns="http://www.w3.org/2000/svg" role="img" aria-label="VerifyYou Docs">
  <g transform="translate(0 5) scale(0.694)">
    <g clip-path="url(#vyb_d)">
      <path d="M11.936 49C5.344 49 0 43.656 0 37.064V11.936C0 5.344 5.344 0 11.936 0H37.064C43.656 0 49 5.344 49 11.936V37.064C49 43.656 43.656 49 37.064 49H11.936Z" fill="#01B503"></path>
      <path d="M17.5951 39.4589C15.3571 39.4589 14.1941 38.2659 14.1941 35.8529V25.4269C14.1941 23.2919 15.1211 22.1149 16.8881 21.8789V18.3749C16.8881 12.9419 20.4811 10.1289 24.5001 10.1289C28.5211 10.1289 32.1131 12.9419 32.1131 18.3749V21.8799C33.8791 22.1149 34.7921 23.2919 34.7921 25.4269V35.8509C34.7921 38.2659 33.6291 39.4589 31.3901 39.4589H17.5951ZM19.6421 18.1099V21.8349H29.3591V18.1099C29.3591 14.6649 27.1211 12.7799 24.5001 12.7799C21.8641 12.7799 19.6421 14.6649 19.6421 18.1099ZM18.0211 36.8239H30.9781C31.5971 36.8239 31.9361 36.4559 31.9361 35.7479V25.5299C31.9361 24.8239 31.5971 24.4709 30.9781 24.4709H18.0221C17.4191 24.4709 17.0501 24.8229 17.0501 25.5299V35.7479C17.0501 36.4559 17.4181 36.8239 18.0221 36.8239H18.0211Z" fill="white"></path>
      <path d="M24.5001 30.7099C23.5631 30.7099 22.7691 29.8739 22.7691 28.8079C22.7691 27.7599 23.5671 26.9399 24.5001 26.9399C25.4321 26.9399 26.2301 27.7439 26.2301 28.7989C26.2301 29.8739 25.4411 30.7099 24.5001 30.7099ZM21.6401 34.7009C21.1591 34.7009 20.8711 34.4729 20.8711 34.0949C20.8711 32.9909 22.2711 31.4709 24.5001 31.4709C26.7231 31.4709 28.1281 32.9909 28.1281 34.0949C28.1281 34.4719 27.8371 34.7009 27.3551 34.7009H21.6401Z" fill="white"></path>
    </g>
  </g>
  <text x="46" y="29" font-family="Inter, 'Helvetica Neue', Arial, sans-serif" font-size="20" letter-spacing="-0.4"><tspan font-weight="700" fill="#FFFFFF">VerifyYou</tspan><tspan font-weight="600" fill="#FFFFFF"> Docs</tspan></text>
  <defs><clipPath id="vyb_d"><rect width="49" height="49" rx="11" fill="white"></rect></clipPath></defs>
</svg>
